<?xml version="1.0" encoding="UTF-8" standalone="no"?>
<!DOCTYPE svg PUBLIC "-//W3C//DTD SVG 1.1//EN"
 "http://www.w3.org/Graphics/SVG/1.1/DTD/svg11.dtd">
<!-- Generated by graphviz version 2.43.0 (0)
 -->
<!-- Title: G Pages: 1 -->
<svg width="569pt" height="1466pt"
 viewBox="0.00 0.00 569.00 1466.00" xmlns="http://www.w3.org/2000/svg" xmlns:xlink="http://www.w3.org/1999/xlink">
<g id="graph0" class="graph" transform="scale(1 1) rotate(0) translate(4 1462)">
<title>G</title>
<polygon fill="white" stroke="transparent" points="-4,4 -4,-1462 565,-1462 565,4 -4,4"/>
<!-- 140131507270096 -->
<g id="node1" class="node">
<title>140131507270096</title>
<polygon fill="none" stroke="black" points="61.5,-1411.5 61.5,-1457.5 499.5,-1457.5 499.5,-1411.5 61.5,-1411.5"/>
<text text-anchor="middle" x="169" y="-1430.8" font-family="Times,serif" font-size="14.00">conv2d_1_input: InputLayer</text>
<polyline fill="none" stroke="black" points="276.5,-1411.5 276.5,-1457.5 "/>
<text text-anchor="middle" x="310.5" y="-1442.3" font-family="Times,serif" font-size="14.00">input:</text>
<polyline fill="none" stroke="black" points="276.5,-1434.5 344.5,-1434.5 "/>
<text text-anchor="middle" x="310.5" y="-1419.3" font-family="Times,serif" font-size="14.00">output:</text>
<polyline fill="none" stroke="black" points="344.5,-1411.5 344.5,-1457.5 "/>
<text text-anchor="middle" x="422" y="-1442.3" font-family="Times,serif" font-size="14.00">(None, 128, 128, 3)</text>
<polyline fill="none" stroke="black" points="344.5,-1434.5 499.5,-1434.5 "/>
<text text-anchor="middle" x="422" y="-1419.3" font-family="Times,serif" font-size="14.00">(None, 128, 128, 3)</text>
</g>
<!-- 140131507270040 -->
<g id="node2" class="node">
<title>140131507270040</title>
<polygon fill="none" stroke="black" points="90,-1328.5 90,-1374.5 471,-1374.5 471,-1328.5 90,-1328.5"/>
<text text-anchor="middle" x="164.5" y="-1347.8" font-family="Times,serif" font-size="14.00">conv2d_1: Conv2D</text>
<polyline fill="none" stroke="black" points="239,-1328.5 239,-1374.5 "/>
<text text-anchor="middle" x="273" y="-1359.3" font-family="Times,serif" font-size="14.00">input:</text>
<polyline fill="none" stroke="black" points="239,-1351.5 307,-1351.5 "/>
<text text-anchor="middle" x="273" y="-1336.3" font-family="Times,serif" font-size="14.00">output:</text>
<polyline fill="none" stroke="black" points="307,-1328.5 307,-1374.5 "/>
<text text-anchor="middle" x="389" y="-1359.3" font-family="Times,serif" font-size="14.00">(None, 128, 128, 3)</text>
<polyline fill="none" stroke="black" points="307,-1351.5 471,-1351.5 "/>
<text text-anchor="middle" x="389" y="-1336.3" font-family="Times,serif" font-size="14.00">(None, 126, 126, 32)</text>
</g>
<!-- 140131507270096&#45;&gt;140131507270040 -->
<g id="edge1" class="edge">
<title>140131507270096&#45;&gt;140131507270040</title>
<path fill="none" stroke="black" d="M280.5,-1411.37C280.5,-1403.15 280.5,-1393.66 280.5,-1384.73"/>
<polygon fill="black" stroke="black" points="284,-1384.61 280.5,-1374.61 277,-1384.61 284,-1384.61"/>
</g>
<!-- 140131507271216 -->
<g id="node3" class="node">
<title>140131507271216</title>
<polygon fill="none" stroke="black" points="0,-1245.5 0,-1291.5 561,-1291.5 561,-1245.5 0,-1245.5"/>
<text text-anchor="middle" x="164.5" y="-1264.8" font-family="Times,serif" font-size="14.00">batch_normalization_1: BatchNormalization</text>
<polyline fill="none" stroke="black" points="329,-1245.5 329,-1291.5 "/>
<text text-anchor="middle" x="363" y="-1276.3" font-family="Times,serif" font-size="14.00">input:</text>
<polyline fill="none" stroke="black" points="329,-1268.5 397,-1268.5 "/>
<text text-anchor="middle" x="363" y="-1253.3" font-family="Times,serif" font-size="14.00">output:</text>
<polyline fill="none" stroke="black" points="397,-1245.5 397,-1291.5 "/>
<text text-anchor="middle" x="479" y="-1276.3" font-family="Times,serif" font-size="14.00">(None, 126, 126, 32)</text>
<polyline fill="none" stroke="black" points="397,-1268.5 561,-1268.5 "/>
<text text-anchor="middle" x="479" y="-1253.3" font-family="Times,serif" font-size="14.00">(None, 126, 126, 32)</text>
</g>
<!-- 140131507270040&#45;&gt;140131507271216 -->
<g id="edge2" class="edge">
<title>140131507270040&#45;&gt;140131507271216</title>
<path fill="none" stroke="black" d="M280.5,-1328.37C280.5,-1320.15 280.5,-1310.66 280.5,-1301.73"/>
<polygon fill="black" stroke="black" points="284,-1301.61 280.5,-1291.61 277,-1301.61 284,-1301.61"/>
</g>
<!-- 140131507271048 -->
<g id="node4" class="node">
<title>140131507271048</title>
<polygon fill="none" stroke="black" points="38.5,-1162.5 38.5,-1208.5 522.5,-1208.5 522.5,-1162.5 38.5,-1162.5"/>
<text text-anchor="middle" x="164.5" y="-1181.8" font-family="Times,serif" font-size="14.00">max_pooling2d_1: MaxPooling2D</text>
<polyline fill="none" stroke="black" points="290.5,-1162.5 290.5,-1208.5 "/>
<text text-anchor="middle" x="324.5" y="-1193.3" font-family="Times,serif" font-size="14.00">input:</text>
<polyline fill="none" stroke="black" points="290.5,-1185.5 358.5,-1185.5 "/>
<text text-anchor="middle" x="324.5" y="-1170.3" font-family="Times,serif" font-size="14.00">output:</text>
<polyline fill="none" stroke="black" points="358.5,-1162.5 358.5,-1208.5 "/>
<text text-anchor="middle" x="440.5" y="-1193.3" font-family="Times,serif" font-size="14.00">(None, 126, 126, 32)</text>
<polyline fill="none" stroke="black" points="358.5,-1185.5 522.5,-1185.5 "/>
<text text-anchor="middle" x="440.5" y="-1170.3" font-family="Times,serif" font-size="14.00">(None, 63, 63, 32)</text>
</g>
<!-- 140131507271216&#45;&gt;140131507271048 -->
<g id="edge3" class="edge">
<title>140131507271216&#45;&gt;140131507271048</title>
<path fill="none" stroke="black" d="M280.5,-1245.37C280.5,-1237.15 280.5,-1227.66 280.5,-1218.73"/>
<polygon fill="black" stroke="black" points="284,-1218.61 280.5,-1208.61 277,-1218.61 284,-1218.61"/>
</g>
<!-- 140131507416088 -->
<g id="node5" class="node">
<title>140131507416088</title>
<polygon fill="none" stroke="black" points="95.5,-1079.5 95.5,-1125.5 465.5,-1125.5 465.5,-1079.5 95.5,-1079.5"/>
<text text-anchor="middle" x="173.5" y="-1098.8" font-family="Times,serif" font-size="14.00">dropout_1: Dropout</text>
<polyline fill="none" stroke="black" points="251.5,-1079.5 251.5,-1125.5 "/>
<text text-anchor="middle" x="285.5" y="-1110.3" font-family="Times,serif" font-size="14.00">input:</text>
<polyline fill="none" stroke="black" points="251.5,-1102.5 319.5,-1102.5 "/>
<text text-anchor="middle" x="285.5" y="-1087.3" font-family="Times,serif" font-size="14.00">output:</text>
<polyline fill="none" stroke="black" points="319.5,-1079.5 319.5,-1125.5 "/>
<text text-anchor="middle" x="392.5" y="-1110.3" font-family="Times,serif" font-size="14.00">(None, 63, 63, 32)</text>
<polyline fill="none" stroke="black" points="319.5,-1102.5 465.5,-1102.5 "/>
<text text-anchor="middle" x="392.5" y="-1087.3" font-family="Times,serif" font-size="14.00">(None, 63, 63, 32)</text>
</g>
<!-- 140131507271048&#45;&gt;140131507416088 -->
<g id="edge4" class="edge">
<title>140131507271048&#45;&gt;140131507416088</title>
<path fill="none" stroke="black" d="M280.5,-1162.37C280.5,-1154.15 280.5,-1144.66 280.5,-1135.73"/>
<polygon fill="black" stroke="black" points="284,-1135.61 280.5,-1125.61 277,-1135.61 284,-1135.61"/>
</g>
<!-- 140131507415976 -->
<g id="node6" class="node">
<title>140131507415976</title>
<polygon fill="none" stroke="black" points="99,-996.5 99,-1042.5 462,-1042.5 462,-996.5 99,-996.5"/>
<text text-anchor="middle" x="173.5" y="-1015.8" font-family="Times,serif" font-size="14.00">conv2d_2: Conv2D</text>
<polyline fill="none" stroke="black" points="248,-996.5 248,-1042.5 "/>
<text text-anchor="middle" x="282" y="-1027.3" font-family="Times,serif" font-size="14.00">input:</text>
<polyline fill="none" stroke="black" points="248,-1019.5 316,-1019.5 "/>
<text text-anchor="middle" x="282" y="-1004.3" font-family="Times,serif" font-size="14.00">output:</text>
<polyline fill="none" stroke="black" points="316,-996.5 316,-1042.5 "/>
<text text-anchor="middle" x="389" y="-1027.3" font-family="Times,serif" font-size="14.00">(None, 63, 63, 32)</text>
<polyline fill="none" stroke="black" points="316,-1019.5 462,-1019.5 "/>
<text text-anchor="middle" x="389" y="-1004.3" font-family="Times,serif" font-size="14.00">(None, 61, 61, 64)</text>
</g>
<!-- 140131507416088&#45;&gt;140131507415976 -->
<g id="edge5" class="edge">
<title>140131507416088&#45;&gt;140131507415976</title>
<path fill="none" stroke="black" d="M280.5,-1079.37C280.5,-1071.15 280.5,-1061.66 280.5,-1052.73"/>
<polygon fill="black" stroke="black" points="284,-1052.61 280.5,-1042.61 277,-1052.61 284,-1052.61"/>
</g>
<!-- 140131507011424 -->
<g id="node7" class="node">
<title>140131507011424</title>
<polygon fill="none" stroke="black" points="9,-913.5 9,-959.5 552,-959.5 552,-913.5 9,-913.5"/>
<text text-anchor="middle" x="173.5" y="-932.8" font-family="Times,serif" font-size="14.00">batch_normalization_2: BatchNormalization</text>
<polyline fill="none" stroke="black" points="338,-913.5 338,-959.5 "/>
<text text-anchor="middle" x="372" y="-944.3" font-family="Times,serif" font-size="14.00">input:</text>
<polyline fill="none" stroke="black" points="338,-936.5 406,-936.5 "/>
<text text-anchor="middle" x="372" y="-921.3" font-family="Times,serif" font-size="14.00">output:</text>
<polyline fill="none" stroke="black" points="406,-913.5 406,-959.5 "/>
<text text-anchor="middle" x="479" y="-944.3" font-family="Times,serif" font-size="14.00">(None, 61, 61, 64)</text>
<polyline fill="none" stroke="black" points="406,-936.5 552,-936.5 "/>
<text text-anchor="middle" x="479" y="-921.3" font-family="Times,serif" font-size="14.00">(None, 61, 61, 64)</text>
</g>
<!-- 140131507415976&#45;&gt;140131507011424 -->
<g id="edge6" class="edge">
<title>140131507415976&#45;&gt;140131507011424</title>
<path fill="none" stroke="black" d="M280.5,-996.37C280.5,-988.15 280.5,-978.66 280.5,-969.73"/>
<polygon fill="black" stroke="black" points="284,-969.61 280.5,-959.61 277,-969.61 284,-969.61"/>
</g>
<!-- 140131497186080 -->
<g id="node8" class="node">
<title>140131497186080</title>
<polygon fill="none" stroke="black" points="47.5,-830.5 47.5,-876.5 513.5,-876.5 513.5,-830.5 47.5,-830.5"/>
<text text-anchor="middle" x="173.5" y="-849.8" font-family="Times,serif" font-size="14.00">max_pooling2d_2: MaxPooling2D</text>
<polyline fill="none" stroke="black" points="299.5,-830.5 299.5,-876.5 "/>
<text text-anchor="middle" x="333.5" y="-861.3" font-family="Times,serif" font-size="14.00">input:</text>
<polyline fill="none" stroke="black" points="299.5,-853.5 367.5,-853.5 "/>
<text text-anchor="middle" x="333.5" y="-838.3" font-family="Times,serif" font-size="14.00">output:</text>
<polyline fill="none" stroke="black" points="367.5,-830.5 367.5,-876.5 "/>
<text text-anchor="middle" x="440.5" y="-861.3" font-family="Times,serif" font-size="14.00">(None, 61, 61, 64)</text>
<polyline fill="none" stroke="black" points="367.5,-853.5 513.5,-853.5 "/>
<text text-anchor="middle" x="440.5" y="-838.3" font-family="Times,serif" font-size="14.00">(None, 30, 30, 64)</text>
</g>
<!-- 140131507011424&#45;&gt;140131497186080 -->
<g id="edge7" class="edge">
<title>140131507011424&#45;&gt;140131497186080</title>
<path fill="none" stroke="black" d="M280.5,-913.37C280.5,-905.15 280.5,-895.66 280.5,-886.73"/>
<polygon fill="black" stroke="black" points="284,-886.61 280.5,-876.61 277,-886.61 284,-886.61"/>
</g>
<!-- 140131496921688 -->
<g id="node9" class="node">
<title>140131496921688</title>
<polygon fill="none" stroke="black" points="95.5,-747.5 95.5,-793.5 465.5,-793.5 465.5,-747.5 95.5,-747.5"/>
<text text-anchor="middle" x="173.5" y="-766.8" font-family="Times,serif" font-size="14.00">dropout_2: Dropout</text>
<polyline fill="none" stroke="black" points="251.5,-747.5 251.5,-793.5 "/>
<text text-anchor="middle" x="285.5" y="-778.3" font-family="Times,serif" font-size="14.00">input:</text>
<polyline fill="none" stroke="black" points="251.5,-770.5 319.5,-770.5 "/>
<text text-anchor="middle" x="285.5" y="-755.3" font-family="Times,serif" font-size="14.00">output:</text>
<polyline fill="none" stroke="black" points="319.5,-747.5 319.5,-793.5 "/>
<text text-anchor="middle" x="392.5" y="-778.3" font-family="Times,serif" font-size="14.00">(None, 30, 30, 64)</text>
<polyline fill="none" stroke="black" points="319.5,-770.5 465.5,-770.5 "/>
<text text-anchor="middle" x="392.5" y="-755.3" font-family="Times,serif" font-size="14.00">(None, 30, 30, 64)</text>
</g>
<!-- 140131497186080&#45;&gt;140131496921688 -->
<g id="edge8" class="edge">
<title>140131497186080&#45;&gt;140131496921688</title>
<path fill="none" stroke="black" d="M280.5,-830.37C280.5,-822.15 280.5,-812.66 280.5,-803.73"/>
<polygon fill="black" stroke="black" points="284,-803.61 280.5,-793.61 277,-803.61 284,-803.61"/>
</g>
<!-- 140131496920848 -->
<g id="node10" class="node">
<title>140131496920848</title>
<polygon fill="none" stroke="black" points="94.5,-664.5 94.5,-710.5 466.5,-710.5 466.5,-664.5 94.5,-664.5"/>
<text text-anchor="middle" x="169" y="-683.8" font-family="Times,serif" font-size="14.00">conv2d_3: Conv2D</text>
<polyline fill="none" stroke="black" points="243.5,-664.5 243.5,-710.5 "/>
<text text-anchor="middle" x="277.5" y="-695.3" font-family="Times,serif" font-size="14.00">input:</text>
<polyline fill="none" stroke="black" points="243.5,-687.5 311.5,-687.5 "/>
<text text-anchor="middle" x="277.5" y="-672.3" font-family="Times,serif" font-size="14.00">output:</text>
<polyline fill="none" stroke="black" points="311.5,-664.5 311.5,-710.5 "/>
<text text-anchor="middle" x="389" y="-695.3" font-family="Times,serif" font-size="14.00">(None, 30, 30, 64)</text>
<polyline fill="none" stroke="black" points="311.5,-687.5 466.5,-687.5 "/>
<text text-anchor="middle" x="389" y="-672.3" font-family="Times,serif" font-size="14.00">(None, 28, 28, 128)</text>
</g>
<!-- 140131496921688&#45;&gt;140131496920848 -->
<g id="edge9" class="edge">
<title>140131496921688&#45;&gt;140131496920848</title>
<path fill="none" stroke="black" d="M280.5,-747.37C280.5,-739.15 280.5,-729.66 280.5,-720.73"/>
<polygon fill="black" stroke="black" points="284,-720.61 280.5,-710.61 277,-720.61 284,-720.61"/>
</g>
<!-- 140131496590192 -->
<g id="node11" class="node">
<title>140131496590192</title>
<polygon fill="none" stroke="black" points="4.5,-581.5 4.5,-627.5 556.5,-627.5 556.5,-581.5 4.5,-581.5"/>
<text text-anchor="middle" x="169" y="-600.8" font-family="Times,serif" font-size="14.00">batch_normalization_3: BatchNormalization</text>
<polyline fill="none" stroke="black" points="333.5,-581.5 333.5,-627.5 "/>
<text text-anchor="middle" x="367.5" y="-612.3" font-family="Times,serif" font-size="14.00">input:</text>
<polyline fill="none" stroke="black" points="333.5,-604.5 401.5,-604.5 "/>
<text text-anchor="middle" x="367.5" y="-589.3" font-family="Times,serif" font-size="14.00">output:</text>
<polyline fill="none" stroke="black" points="401.5,-581.5 401.5,-627.5 "/>
<text text-anchor="middle" x="479" y="-612.3" font-family="Times,serif" font-size="14.00">(None, 28, 28, 128)</text>
<polyline fill="none" stroke="black" points="401.5,-604.5 556.5,-604.5 "/>
<text text-anchor="middle" x="479" y="-589.3" font-family="Times,serif" font-size="14.00">(None, 28, 28, 128)</text>
</g>
<!-- 140131496920848&#45;&gt;140131496590192 -->
<g id="edge10" class="edge">
<title>140131496920848&#45;&gt;140131496590192</title>
<path fill="none" stroke="black" d="M280.5,-664.37C280.5,-656.15 280.5,-646.66 280.5,-637.73"/>
<polygon fill="black" stroke="black" points="284,-637.61 280.5,-627.61 277,-637.61 284,-637.61"/>
</g>
<!-- 140131496453960 -->
<g id="node12" class="node">
<title>140131496453960</title>
<polygon fill="none" stroke="black" points="43,-498.5 43,-544.5 518,-544.5 518,-498.5 43,-498.5"/>
<text text-anchor="middle" x="169" y="-517.8" font-family="Times,serif" font-size="14.00">max_pooling2d_3: MaxPooling2D</text>
<polyline fill="none" stroke="black" points="295,-498.5 295,-544.5 "/>
<text text-anchor="middle" x="329" y="-529.3" font-family="Times,serif" font-size="14.00">input:</text>
<polyline fill="none" stroke="black" points="295,-521.5 363,-521.5 "/>
<text text-anchor="middle" x="329" y="-506.3" font-family="Times,serif" font-size="14.00">output:</text>
<polyline fill="none" stroke="black" points="363,-498.5 363,-544.5 "/>
<text text-anchor="middle" x="440.5" y="-529.3" font-family="Times,serif" font-size="14.00">(None, 28, 28, 128)</text>
<polyline fill="none" stroke="black" points="363,-521.5 518,-521.5 "/>
<text text-anchor="middle" x="440.5" y="-506.3" font-family="Times,serif" font-size="14.00">(None, 14, 14, 128)</text>
</g>
<!-- 140131496590192&#45;&gt;140131496453960 -->
<g id="edge11" class="edge">
<title>140131496590192&#45;&gt;140131496453960</title>
<path fill="none" stroke="black" d="M280.5,-581.37C280.5,-573.15 280.5,-563.66 280.5,-554.73"/>
<polygon fill="black" stroke="black" points="284,-554.61 280.5,-544.61 277,-554.61 284,-554.61"/>
</g>
<!-- 140131495789512 -->
<g id="node13" class="node">
<title>140131495789512</title>
<polygon fill="none" stroke="black" points="91,-415.5 91,-461.5 470,-461.5 470,-415.5 91,-415.5"/>
<text text-anchor="middle" x="169" y="-434.8" font-family="Times,serif" font-size="14.00">dropout_3: Dropout</text>
<polyline fill="none" stroke="black" points="247,-415.5 247,-461.5 "/>
<text text-anchor="middle" x="281" y="-446.3" font-family="Times,serif" font-size="14.00">input:</text>
<polyline fill="none" stroke="black" points="247,-438.5 315,-438.5 "/>
<text text-anchor="middle" x="281" y="-423.3" font-family="Times,serif" font-size="14.00">output:</text>
<polyline fill="none" stroke="black" points="315,-415.5 315,-461.5 "/>
<text text-anchor="middle" x="392.5" y="-446.3" font-family="Times,serif" font-size="14.00">(None, 14, 14, 128)</text>
<polyline fill="none" stroke="black" points="315,-438.5 470,-438.5 "/>
<text text-anchor="middle" x="392.5" y="-423.3" font-family="Times,serif" font-size="14.00">(None, 14, 14, 128)</text>
</g>
<!-- 140131496453960&#45;&gt;140131495789512 -->
<g id="edge12" class="edge">
<title>140131496453960&#45;&gt;140131495789512</title>
<path fill="none" stroke="black" d="M280.5,-498.37C280.5,-490.15 280.5,-480.66 280.5,-471.73"/>
<polygon fill="black" stroke="black" points="284,-471.61 280.5,-461.61 277,-471.61 284,-471.61"/>
</g>
<!-- 140131495864696 -->
<g id="node14" class="node">
<title>140131495864696</title>
<polygon fill="none" stroke="black" points="99,-332.5 99,-378.5 462,-378.5 462,-332.5 99,-332.5"/>
<text text-anchor="middle" x="169" y="-351.8" font-family="Times,serif" font-size="14.00">flatten_1: Flatten</text>
<polyline fill="none" stroke="black" points="239,-332.5 239,-378.5 "/>
<text text-anchor="middle" x="273" y="-363.3" font-family="Times,serif" font-size="14.00">input:</text>
<polyline fill="none" stroke="black" points="239,-355.5 307,-355.5 "/>
<text text-anchor="middle" x="273" y="-340.3" font-family="Times,serif" font-size="14.00">output:</text>
<polyline fill="none" stroke="black" points="307,-332.5 307,-378.5 "/>
<text text-anchor="middle" x="384.5" y="-363.3" font-family="Times,serif" font-size="14.00">(None, 14, 14, 128)</text>
<polyline fill="none" stroke="black" points="307,-355.5 462,-355.5 "/>
<text text-anchor="middle" x="384.5" y="-340.3" font-family="Times,serif" font-size="14.00">(None, 25088)</text>
</g>
<!-- 140131495789512&#45;&gt;140131495864696 -->
<g id="edge13" class="edge">
<title>140131495789512&#45;&gt;140131495864696</title>
<path fill="none" stroke="black" d="M280.5,-415.37C280.5,-407.15 280.5,-397.66 280.5,-388.73"/>
<polygon fill="black" stroke="black" points="284,-388.61 280.5,-378.61 277,-388.61 284,-388.61"/>
</g>
<!-- 140131496198096 -->
<g id="node15" class="node">
<title>140131496198096</title>
<polygon fill="none" stroke="black" points="123,-249.5 123,-295.5 438,-295.5 438,-249.5 123,-249.5"/>
<text text-anchor="middle" x="187" y="-268.8" font-family="Times,serif" font-size="14.00">dense_1: Dense</text>
<polyline fill="none" stroke="black" points="251,-249.5 251,-295.5 "/>
<text text-anchor="middle" x="285" y="-280.3" font-family="Times,serif" font-size="14.00">input:</text>
<polyline fill="none" stroke="black" points="251,-272.5 319,-272.5 "/>
<text text-anchor="middle" x="285" y="-257.3" font-family="Times,serif" font-size="14.00">output:</text>
<polyline fill="none" stroke="black" points="319,-249.5 319,-295.5 "/>
<text text-anchor="middle" x="378.5" y="-280.3" font-family="Times,serif" font-size="14.00">(None, 25088)</text>
<polyline fill="none" stroke="black" points="319,-272.5 438,-272.5 "/>
<text text-anchor="middle" x="378.5" y="-257.3" font-family="Times,serif" font-size="14.00">(None, 512)</text>
</g>
<!-- 140131495864696&#45;&gt;140131496198096 -->
<g id="edge14" class="edge">
<title>140131495864696&#45;&gt;140131496198096</title>
<path fill="none" stroke="black" d="M280.5,-332.37C280.5,-324.15 280.5,-314.66 280.5,-305.73"/>
<polygon fill="black" stroke="black" points="284,-305.61 280.5,-295.61 277,-305.61 284,-305.61"/>
</g>
<!-- 140131227865608 -->
<g id="node16" class="node">
<title>140131227865608</title>
<polygon fill="none" stroke="black" points="31.5,-166.5 31.5,-212.5 529.5,-212.5 529.5,-166.5 31.5,-166.5"/>
<text text-anchor="middle" x="196" y="-185.8" font-family="Times,serif" font-size="14.00">batch_normalization_4: BatchNormalization</text>
<polyline fill="none" stroke="black" points="360.5,-166.5 360.5,-212.5 "/>
<text text-anchor="middle" x="394.5" y="-197.3" font-family="Times,serif" font-size="14.00">input:</text>
<polyline fill="none" stroke="black" points="360.5,-189.5 428.5,-189.5 "/>
<text text-anchor="middle" x="394.5" y="-174.3" font-family="Times,serif" font-size="14.00">output:</text>
<polyline fill="none" stroke="black" points="428.5,-166.5 428.5,-212.5 "/>
<text text-anchor="middle" x="479" y="-197.3" font-family="Times,serif" font-size="14.00">(None, 512)</text>
<polyline fill="none" stroke="black" points="428.5,-189.5 529.5,-189.5 "/>
<text text-anchor="middle" x="479" y="-174.3" font-family="Times,serif" font-size="14.00">(None, 512)</text>
</g>
<!-- 140131496198096&#45;&gt;140131227865608 -->
<g id="edge15" class="edge">
<title>140131496198096&#45;&gt;140131227865608</title>
<path fill="none" stroke="black" d="M280.5,-249.37C280.5,-241.15 280.5,-231.66 280.5,-222.73"/>
<polygon fill="black" stroke="black" points="284,-222.61 280.5,-212.61 277,-222.61 284,-222.61"/>
</g>
<!-- 140131227868632 -->
<g id="node17" class="node">
<title>140131227868632</title>
<polygon fill="none" stroke="black" points="118,-83.5 118,-129.5 443,-129.5 443,-83.5 118,-83.5"/>
<text text-anchor="middle" x="196" y="-102.8" font-family="Times,serif" font-size="14.00">dropout_4: Dropout</text>
<polyline fill="none" stroke="black" points="274,-83.5 274,-129.5 "/>
<text text-anchor="middle" x="308" y="-114.3" font-family="Times,serif" font-size="14.00">input:</text>
<polyline fill="none" stroke="black" points="274,-106.5 342,-106.5 "/>
<text text-anchor="middle" x="308" y="-91.3" font-family="Times,serif" font-size="14.00">output:</text>
<polyline fill="none" stroke="black" points="342,-83.5 342,-129.5 "/>
<text text-anchor="middle" x="392.5" y="-114.3" font-family="Times,serif" font-size="14.00">(None, 512)</text>
<polyline fill="none" stroke="black" points="342,-106.5 443,-106.5 "/>
<text text-anchor="middle" x="392.5" y="-91.3" font-family="Times,serif" font-size="14.00">(None, 512)</text>
</g>
<!-- 140131227865608&#45;&gt;140131227868632 -->
<g id="edge16" class="edge">
<title>140131227865608&#45;&gt;140131227868632</title>
<path fill="none" stroke="black" d="M280.5,-166.37C280.5,-158.15 280.5,-148.66 280.5,-139.73"/>
<polygon fill="black" stroke="black" points="284,-139.61 280.5,-129.61 277,-139.61 284,-139.61"/>
</g>
<!-- 140131228005824 -->
<g id="node18" class="node">
<title>140131228005824</title>
<polygon fill="none" stroke="black" points="132,-0.5 132,-46.5 429,-46.5 429,-0.5 132,-0.5"/>
<text text-anchor="middle" x="196" y="-19.8" font-family="Times,serif" font-size="14.00">dense_2: Dense</text>
<polyline fill="none" stroke="black" points="260,-0.5 260,-46.5 "/>
<text text-anchor="middle" x="294" y="-31.3" font-family="Times,serif" font-size="14.00">input:</text>
<polyline fill="none" stroke="black" points="260,-23.5 328,-23.5 "/>
<text text-anchor="middle" x="294" y="-8.3" font-family="Times,serif" font-size="14.00">output:</text>
<polyline fill="none" stroke="black" points="328,-0.5 328,-46.5 "/>
<text text-anchor="middle" x="378.5" y="-31.3" font-family="Times,serif" font-size="14.00">(None, 512)</text>
<polyline fill="none" stroke="black" points="328,-23.5 429,-23.5 "/>
<text text-anchor="middle" x="378.5" y="-8.3" font-family="Times,serif" font-size="14.00">(None, 2)</text>
</g>
<!-- 140131227868632&#45;&gt;140131228005824 -->
<g id="edge17" class="edge">
<title>140131227868632&#45;&gt;140131228005824</title>
<path fill="none" stroke="black" d="M280.5,-83.37C280.5,-75.15 280.5,-65.66 280.5,-56.73"/>
<polygon fill="black" stroke="black" points="284,-56.61 280.5,-46.61 277,-56.61 284,-56.61"/>
</g>
</g>
</svg>
